<?xml version="1.0" standalone="no"?>
<!DOCTYPE svg PUBLIC "-//W3C//DTD SVG 20010904//EN"
 "http://www.w3.org/TR/2001/REC-SVG-20010904/DTD/svg10.dtd">
<svg version="1.0" xmlns="http://www.w3.org/2000/svg"
 width="1080.000000pt" height="1080.000000pt" viewBox="0 0 1080.000000 1080.000000"
 preserveAspectRatio="xMidYMid meet">

<g transform="translate(0.000000,1080.000000) scale(0.100000,-0.100000)"
fill="#000000" stroke="none">
<path d="M4966 9641 c-29 -11 -2 -25 32 -16 20 5 23 8 11 16 -16 10 -18 10
-43 0z"/>
<path d="M4450 9616 c0 -42 -23 -50 -143 -52 -149 -2 -145 -1 -152 -25 -10
-31 -65 -49 -147 -49 -71 -1 -74 -2 -93 -33 -19 -30 -24 -32 -92 -37 -65 -5
-75 -8 -108 -40 -31 -30 -42 -35 -99 -38 -58 -4 -65 -7 -70 -28 -8 -29 -41
-44 -96 -44 -33 0 -42 -4 -55 -29 -9 -19 -25 -31 -45 -35 -16 -3 -43 -9 -60
-12 -19 -3 -34 -15 -42 -32 -8 -16 -26 -30 -45 -35 -21 -6 -33 -17 -38 -34 -7
-28 -40 -43 -96 -43 -32 0 -41 -5 -51 -25 -6 -13 -24 -29 -39 -34 -16 -6 -33
-21 -38 -34 -13 -33 -49 -57 -86 -57 -37 0 -50 -9 -60 -38 -4 -13 -20 -28 -35
-34 -16 -5 -36 -21 -45 -34 -9 -14 -27 -29 -41 -34 -13 -5 -29 -21 -34 -34 -5
-14 -22 -32 -38 -40 -15 -8 -33 -26 -40 -40 -11 -25 -61 -46 -109 -46 -14 0
-24 -9 -32 -30 -6 -20 -21 -34 -39 -41 -17 -6 -32 -21 -39 -39 -7 -18 -21 -32
-36 -35 -16 -5 -29 -18 -36 -36 -7 -19 -21 -33 -40 -40 -18 -7 -31 -20 -35
-35 -4 -16 -19 -30 -41 -40 -29 -12 -35 -19 -35 -45 0 -33 -25 -89 -40 -89 -5
0 -21 -18 -35 -40 -14 -23 -36 -45 -49 -50 -13 -5 -26 -20 -30 -34 -3 -14 -19
-32 -35 -41 -16 -8 -33 -24 -36 -35 -4 -12 -19 -26 -33 -33 -36 -15 -42 -25
-42 -69 0 -50 -8 -66 -41 -83 -15 -8 -30 -24 -34 -34 -3 -11 -21 -29 -40 -40
-31 -18 -35 -25 -35 -63 0 -46 -22 -88 -45 -88 -20 0 -29 -20 -27 -54 4 -43
-14 -78 -48 -98 -27 -15 -30 -22 -30 -66 0 -51 -9 -64 -54 -87 -16 -8 -21 -21
-23 -50 -1 -22 -2 -46 -2 -53 -1 -7 -17 -22 -36 -33 -33 -20 -35 -24 -35 -75
0 -51 -2 -56 -34 -75 -38 -22 -46 -47 -46 -145 0 -58 -2 -64 -31 -87 -32 -25
-32 -25 -39 -147 -7 -120 -8 -123 -39 -152 -17 -16 -31 -39 -32 -51 -11 -299
-15 -345 -34 -372 -11 -15 -26 -37 -33 -49 -9 -16 -12 -137 -10 -541 l3 -520
24 -32 c28 -38 38 -93 47 -283 7 -128 8 -137 35 -167 25 -29 28 -40 34 -153 7
-118 9 -123 36 -148 23 -20 29 -34 29 -64 0 -61 20 -131 47 -159 19 -21 27
-44 34 -100 12 -103 16 -117 38 -124 20 -6 35 -37 46 -92 3 -17 19 -45 35 -62
19 -19 32 -46 36 -72 5 -28 18 -52 40 -75 27 -26 34 -42 34 -72 0 -31 8 -46
40 -80 31 -32 40 -49 40 -76 0 -28 8 -43 35 -67 19 -18 35 -37 35 -43 0 -35
22 -84 40 -89 11 -3 25 -18 32 -34 6 -15 43 -58 81 -96 61 -59 70 -73 75 -112
4 -38 10 -48 38 -64 19 -11 34 -27 34 -36 0 -8 18 -26 40 -40 22 -14 40 -31
40 -39 0 -15 103 -126 118 -126 10 0 23 -34 36 -91 4 -17 17 -31 37 -39 17 -7
35 -24 40 -37 5 -13 20 -28 34 -33 14 -5 30 -22 36 -37 5 -16 23 -36 39 -45
16 -9 32 -28 36 -42 5 -23 11 -26 51 -26 40 0 50 -5 89 -45 24 -25 48 -45 53
-45 6 0 17 -13 25 -29 9 -16 27 -32 41 -35 17 -4 31 -19 41 -41 10 -24 21 -35
34 -35 13 0 28 -13 41 -34 16 -28 27 -34 66 -40 47 -6 83 -29 83 -51 0 -6 18
-17 40 -24 28 -8 42 -19 46 -35 5 -20 16 -26 66 -37 51 -12 62 -18 70 -41 6
-18 21 -31 44 -38 22 -8 36 -20 40 -35 5 -20 14 -24 63 -30 68 -8 77 -12 90
-48 10 -24 15 -27 61 -27 51 0 90 -23 90 -54 0 -9 21 -15 70 -20 l69 -7 7 -35
6 -35 96 2 c88 2 96 1 114 -20 10 -13 18 -29 18 -37 0 -11 21 -14 98 -14 53 0
102 -4 109 -8 6 -4 15 -20 18 -35 l7 -28 112 5 c61 2 128 5 148 6 21 1 48 -6
60 -14 33 -23 51 -20 90 17 19 17 43 37 54 44 19 12 19 13 -4 32 -12 11 -27
21 -33 23 -6 2 -14 21 -18 43 -5 34 -11 41 -39 49 -21 6 -32 15 -32 27 0 10
-14 27 -30 39 -16 12 -30 29 -30 39 0 9 -7 26 -15 37 -8 10 -15 27 -15 36 0
17 28 38 49 38 11 0 44 -55 39 -65 -2 -3 15 -16 37 -28 33 -18 42 -30 49 -65
9 -39 12 -42 40 -41 19 1 24 3 13 6 -11 3 -16 10 -13 20 3 8 6 23 6 33 0 35
42 70 85 73 34 2 40 5 40 25 0 12 -6 22 -14 22 -10 0 -11 3 -2 13 13 16 5 27
-21 27 -18 0 -19 10 -16 254 2 140 6 257 10 261 3 3 15 1 27 -7 18 -11 23 -10
38 4 16 16 16 19 -2 38 -17 19 -19 19 -37 3 -10 -9 -21 -13 -26 -9 -9 9 -10
562 0 571 3 3 15 1 27 -7 18 -11 23 -10 38 4 16 16 16 19 -2 38 -17 19 -19 19
-37 3 -10 -9 -21 -13 -26 -9 -9 9 -10 562 0 571 3 3 15 1 27 -7 18 -11 23 -10
38 4 16 16 16 19 -2 38 -17 19 -19 19 -37 3 -10 -9 -21 -13 -26 -9 -9 9 -10
562 0 571 3 3 15 1 27 -7 18 -11 23 -10 38 4 16 16 16 19 -2 38 -17 19 -19 19
-37 3 -10 -9 -21 -13 -26 -9 -9 9 -10 562 0 571 3 3 15 1 27 -7 18 -11 23 -10
38 4 16 16 16 19 -2 38 -17 19 -19 19 -37 3 -10 -9 -21 -13 -26 -9 -9 9 -10
562 0 571 3 3 15 1 27 -7 18 -11 23 -10 38 4 16 16 16 19 -2 38 -17 19 -19 19
-37 3 -10 -9 -21 -13 -26 -9 -9 9 -10 562 0 571 3 3 15 1 27 -7 18 -11 23 -10
38 4 16 16 16 19 -2 38 -17 19 -19 19 -37 3 -10 -9 -21 -13 -26 -9 -9 9 -10
562 0 571 3 3 15 1 27 -7 18 -11 23 -10 38 4 16 16 16 19 -2 38 -17 19 -19 19
-37 3 -10 -9 -21 -13 -26 -9 -9 9 -10 562 0 571 3 3 15 1 27 -7 18 -11 23 -10
38 4 16 16 16 19 -2 38 -17 19 -19 19 -37 3 -10 -9 -21 -13 -26 -9 -9 9 -10
562 0 571 3 3 15 1 26 -6 37 -23 70 23 37 51 -13 10 -19 9 -35 -5 -11 -10 -23
-15 -28 -11 -4 4 -8 409 -10 901 l-2 892 -50 7 c-28 4 -50 11 -50 16 0 6 7 10
15 10 13 0 12 4 -5 22 -11 12 -18 28 -16 35 3 6 0 13 -5 15 -6 2 -14 30 -18
62 -10 74 7 102 57 91 47 -10 55 -33 26 -70 -13 -17 -24 -42 -24 -56 0 -51 83
-59 109 -10 13 23 -3 77 -25 85 -20 8 -18 30 5 50 11 10 18 26 16 37 -3 13 2
19 13 19 10 0 22 13 29 30 11 30 11 30 -22 30 -28 0 -33 -3 -30 -18 3 -15 -3
-19 -31 -20 -19 -1 -34 2 -34 6 0 5 -16 14 -36 21 -33 12 -37 11 -60 -14 -13
-14 -24 -32 -24 -40 0 -37 -104 -63 -117 -29 -7 19 36 67 54 60 7 -3 13 -1 13
5 0 6 4 8 8 5 5 -3 9 1 9 9 0 12 -16 15 -69 15 -65 0 -68 -1 -68 -24z m24
-136 c-6 -6 -19 -8 -29 -4 -17 7 -17 8 1 21 21 15 45 0 28 -17z m-67 -8095
c-2 -5 -11 -11 -20 -13 -12 -3 -17 4 -17 21 0 13 3 27 7 31 9 9 35 -24 30 -39z
m153 -138 c0 -36 -17 -47 -51 -34 -35 14 -37 30 -6 45 37 18 57 14 57 -11z"/>
<path d="M5130 9346 c0 -22 3 -27 11 -19 8 8 8 16 0 30 -9 16 -10 14 -11 -11z"/>
<path d="M4972 1314 c-7 -13 -27 -26 -48 -31 -52 -12 -66 -38 -35 -62 23 -18
25 -18 57 1 24 14 35 29 40 53 8 46 1 66 -14 39z"/>
<path d="M5038 1083 c6 -2 18 -2 25 0 6 3 1 5 -13 5 -14 0 -19 -2 -12 -5z"/>
<path d="M4984 1072 c-6 -4 -13 -19 -16 -34 -5 -26 -3 -28 27 -28 31 0 32 1
26 32 -7 33 -19 43 -37 30z"/>
<path d="M4710 1030 l-35 -19 68 -1 c70 0 78 4 50 26 -24 18 -42 17 -83 -6z"/>
</g>
</svg>
